<?xml version="1.0" standalone="no"?><!DOCTYPE svg PUBLIC "-//W3C//DTD SVG 1.1//EN" "http://www.w3.org/Graphics/SVG/1.1/DTD/svg11.dtd"><svg t="1555419124803" class="icon" style="" viewBox="0 0 1024 1024" version="1.1" xmlns="http://www.w3.org/2000/svg" p-id="5166" xmlns:xlink="http://www.w3.org/1999/xlink" width="200" height="200"><defs><style type="text/css"></style></defs><path d="M512 1024h-13.653c-614.4-252.587-402.774-819.2-402.774-826.027 6.827-20.48 20.48-27.306 40.96-27.306 204.8 13.653 293.547-102.4 341.334-157.014C484.693 6.827 498.347 0 512 0s20.48 0 34.133 13.653c47.787 54.614 143.36 170.667 341.334 157.014 20.48 0 34.133 6.826 40.96 27.306 0 6.827 211.626 573.44-402.774 826.027H512zM157.013 245.76C122.88 348.16 47.787 744.107 512 942.08c464.213-204.8 382.293-593.92 354.987-696.32h-6.827c-184.32 0-286.72-88.747-348.16-150.187-61.44 61.44-170.667 150.187-354.987 150.187z" fill="#2C2C2C" p-id="5167"></path><path d="M457.387 320.853h122.88V430.08h-122.88z m0 177.494h122.88v245.76h-122.88z" fill="#2C2C2C" p-id="5168"></path></svg>