<?xml version="1.0" standalone="no"?><!DOCTYPE svg PUBLIC "-//W3C//DTD SVG 1.1//EN" "http://www.w3.org/Graphics/SVG/1.1/DTD/svg11.dtd"><svg t="1553410991067" class="icon" style="" viewBox="0 0 1024 1024" version="1.1" xmlns="http://www.w3.org/2000/svg" p-id="9463" xmlns:xlink="http://www.w3.org/1999/xlink" width="200" height="200"><defs><style type="text/css"></style></defs><path d="M160.256 512c0 198.144 160.256 358.4 358.4 358.4s358.4-160.256 358.4-358.4-160.256-358.4-358.4-358.4-358.4 160.256-358.4 358.4z" fill="#E9EAEB" p-id="9464"></path><path d="M324.608 504.832c0 107.008 86.528 193.536 193.536 193.536S711.68 611.84 711.68 504.832s-86.528-193.536-193.536-193.536-193.536 86.528-193.536 193.536z" fill="#FFFFFF" p-id="9465"></path><path d="M667.136 453.12H634.88v-25.6h19.456l52.736-77.312h82.432v25.6h-69.632l-52.736 77.312z m-6.656 38.912h141.824v25.6H660.48v-25.6z" fill="#2A5082" p-id="9466"></path><path d="M751.104 363.008c0 21.504 17.408 38.912 38.912 38.912s38.912-17.408 38.912-38.912c0-21.504-17.408-38.912-38.912-38.912-21.504 0-38.912 17.408-38.912 38.912z" fill="#A3D4FF" p-id="9467"></path><path d="M789.504 414.72c-28.16 0-51.712-23.04-51.712-51.712 0-28.16 23.04-51.712 51.712-51.712 28.16 0 51.712 23.04 51.712 51.712 0 28.16-23.04 51.712-51.712 51.712z m0-77.824c-14.336 0-25.6 11.776-25.6 25.6 0 14.336 11.776 25.6 25.6 25.6s25.6-11.776 25.6-25.6c0.512-13.824-11.264-25.6-25.6-25.6z m0 323.072h-82.432L655.36 582.144h-20.48v-25.6h34.816l50.176 77.312h69.632v26.112z" fill="#2A5082" p-id="9468"></path><path d="M751.104 647.168c0 21.504 17.408 38.912 38.912 38.912s38.912-17.408 38.912-38.912c0-21.504-17.408-38.912-38.912-38.912-21.504 0-38.912 17.408-38.912 38.912 0-0.512 0 0 0 0z" fill="#A3D4FF" p-id="9469"></path><path d="M789.504 698.368c-28.16 0-51.712-23.04-51.712-51.712s23.04-51.712 51.712-51.712c28.16 0 51.712 23.04 51.712 51.712s-23.04 51.712-51.712 51.712z m0-77.312c-14.336 0-25.6 11.776-25.6 25.6 0 14.336 11.776 25.6 25.6 25.6s25.6-11.776 25.6-25.6c0.512-13.824-11.264-25.6-25.6-25.6z" fill="#2A5082" p-id="9470"></path><path d="M763.904 504.832c0 21.504 17.408 38.912 38.912 38.912s38.912-17.408 38.912-38.912c0-21.504-17.408-38.912-38.912-38.912s-38.912 17.408-38.912 38.912z" fill="#A3D4FF" p-id="9471"></path><path d="M802.304 556.544c-28.16 0-51.712-23.04-51.712-51.712 0-28.16 23.04-51.712 51.712-51.712 28.16 0 51.712 23.04 51.712 51.712s-23.04 51.712-51.712 51.712z m0-77.312c-14.336 0-25.6 11.776-25.6 25.6 0 14.336 11.776 25.6 25.6 25.6 14.336 0 25.6-11.776 25.6-25.6 0.512-14.336-11.264-25.6-25.6-25.6z m-129.024 291.84l-82.432-123.904h-7.68v-25.6h20.48l91.648 135.68-22.016 13.824z" fill="#2A5082" p-id="9472"></path><path d="M647.68 763.392c0 21.504 17.408 38.912 38.912 38.912 21.504 0 38.912-17.408 38.912-38.912 0-21.504-17.408-38.912-38.912-38.912-21.504 0-38.912 17.408-38.912 38.912 0-0.512 0-0.512 0 0z" fill="#A3D4FF" p-id="9473"></path><path d="M686.08 814.592c-28.16 0-51.712-23.04-51.712-51.712 0-28.16 23.04-51.712 51.712-51.712s51.712 23.04 51.712 51.712-23.04 51.712-51.712 51.712z m0-77.312c-14.336 0-25.6 11.776-25.6 25.6s11.776 25.6 25.6 25.6 25.6-11.776 25.6-25.6-11.264-25.6-25.6-25.6z m-82.432-348.672h-84.992v-25.6h72.192l83.968-98.304 19.456 16.896-90.624 107.008z" fill="#2A5082" p-id="9474"></path><path d="M647.68 272.384c0 21.504 17.408 38.912 38.912 38.912 21.504 0 38.912-17.408 38.912-38.912 0-21.504-17.408-38.912-38.912-38.912-21.504 0-38.912 17.408-38.912 38.912z" fill="#A3D4FF" p-id="9475"></path><path d="M686.08 324.096c-28.16 0-51.712-23.04-51.712-51.712s23.04-51.712 51.712-51.712 51.712 23.04 51.712 51.712-23.04 51.712-51.712 51.712z m0-77.312c-14.336 0-25.6 11.776-25.6 25.6 0 14.336 11.776 25.6 25.6 25.6s25.6-11.776 25.6-25.6c0.512-14.336-11.264-25.6-25.6-25.6z" fill="#2A5082" p-id="9476"></path><path d="M428.032 207.872c-41.472 0-76.288 27.136-86.528 64.512-51.712 1.536-94.208 50.176-94.208 109.568 0 5.12 0 9.216 1.536 14.336-37.376 17.92-66.048 66.048-66.048 121.344 0 36.352 11.776 68.608 28.16 91.648-2.56 12.8-4.096 27.136-2.56 41.472 6.656 60.928 55.296 103.424 108.544 98.304 14.336 37.376 52.736 66.048 98.304 66.048 56.832 0 103.424-44.032 103.424-96.768v-419.84c0-49.152-40.448-90.624-90.624-90.624z" fill="#A3D4FF" p-id="9477"></path><path d="M415.232 827.904c-46.592 0-88.064-25.6-105.984-64.512-55.296 1.536-105.984-46.592-112.128-109.568-1.536-12.8-1.536-27.136 1.536-39.936-17.92-25.6-28.16-59.392-28.16-94.208 0-56.832 25.6-107.008 64.512-129.024V384c0-63.488 42.496-114.688 98.304-121.344 15.36-38.912 54.272-66.048 95.744-66.048 56.832 0 103.424 46.592 103.424 103.424v419.84c-1.024 58.88-52.736 108.032-117.248 108.032z m-89.088-91.648l4.096 9.216c12.8 33.792 46.592 56.832 84.992 56.832 50.176 0 90.624-37.376 90.624-83.968v-419.84c0-42.496-34.816-77.312-77.312-77.312C394.24 220.672 363.52 244.224 353.28 276.48l-2.56 9.216h-9.216c-45.056 1.536-81.408 45.056-81.408 96.768 0 4.096 0 7.68 1.536 11.776l1.536 9.216-9.216 4.096c-34.816 15.36-57.856 60.928-57.856 109.568 0 32.256 9.216 61.952 25.6 83.968l4.096 5.12-1.536 6.656c-2.56 11.776-4.096 24.576-2.56 37.376 6.656 52.736 49.152 91.648 94.208 86.528h10.24v-0.512z" fill="#2A5082" p-id="9478"></path><path d="M428.032 401.408c-56.832 0-103.424-46.592-103.424-103.424 0-10.24 1.536-19.456 4.096-29.696L353.28 276.48c-2.56 7.68-2.56 14.336-2.56 22.016 0 42.496 34.816 77.312 77.312 77.312v25.6zM337.92 533.504c-11.776 0-22.016-2.56-32.256-9.216l12.8-22.016c23.04 14.336 50.176-2.56 68.608-23.04 20.48-24.576 49.152-38.912 74.752-38.912 20.48 0 38.912 9.216 52.736 24.576 6.656 7.68 11.776 15.36 15.36 23.04l-23.04 10.24c-2.56-6.656-6.656-12.8-11.776-17.92-9.216-10.24-20.48-15.36-33.792-15.36-19.456 0-39.936 11.776-55.296 29.696-20.48 25.6-45.056 38.912-68.096 38.912z m163.84-182.272c-37.376 0-71.168-23.04-84.992-61.952l24.576-9.216c11.776 32.256 42.496 50.176 74.752 42.496l5.12 25.6c-7.68 3.072-13.312 3.072-19.456 3.072z m-61.952 366.592l-24.576-9.216c15.36-44.032 59.392-68.608 104.448-59.392l-5.12 25.6c-32.256-7.168-61.952 10.752-74.752 43.008z" fill="#2A5082" p-id="9479"></path><path d="M324.608 414.72h-25.6c0-33.792 31.232-56.832 61.952-64.512l6.656 24.576c-20.992 6.144-43.008 20.48-43.008 39.936z m-2.56 258.048c-31.232-7.68-61.952-31.232-61.952-64.512h25.6c0 19.456 22.016 33.792 41.472 38.912l-5.12 25.6z" fill="#2A5082" p-id="9480"></path><path d="M313.344 772.096c-9.216-16.896-14.336-34.816-14.336-52.736 0-56.832 45.056-103.424 103.424-108.544v-1.536c0-31.232 37.376-64.512 64.512-64.512v25.6c-12.8 0-38.912 23.04-38.912 38.912v25.6h-12.8c-50.176 0-90.624 37.376-90.624 83.968 0 14.336 4.096 28.16 11.776 39.936l-23.04 13.312z m-53.248-202.752v-25.6c17.92 0 32.256-14.336 32.256-32.256s-14.336-32.256-32.256-32.256v-25.6c32.256 0 57.856 25.6 57.856 57.856 0.512 32.256-25.6 57.856-57.856 57.856z m258.56-141.824h38.912v25.6h-38.912v-25.6z m64.512 0h25.6v25.6h-25.6v-25.6z m0 129.024h25.6v25.6h-25.6v-25.6z m-64.512 0h38.912v25.6h-38.912v-25.6z m0 64.512h38.912v25.6h-38.912v-25.6z m0-129.024h64.512v25.6h-64.512v-25.6z m90.112 0h25.6v25.6h-25.6v-25.6z" fill="#2A5082" p-id="9481"></path><path d="M505.344 182.272h25.6v658.432h-25.6V182.272z m0-77.824h25.6v51.712h-25.6V104.448z m0 761.856h25.6v51.712h-25.6v-51.712z" fill="#2A5082" p-id="9482"></path></svg>