<?xml version="1.0" standalone="no"?><!DOCTYPE svg PUBLIC "-//W3C//DTD SVG 1.1//EN" "http://www.w3.org/Graphics/SVG/1.1/DTD/svg11.dtd"><svg t="1553411149203" class="icon" style="" viewBox="0 0 1024 1024" version="1.1" xmlns="http://www.w3.org/2000/svg" p-id="12490" xmlns:xlink="http://www.w3.org/1999/xlink" width="200" height="200"><defs><style type="text/css"></style></defs><path d="M904 687.04a24 24 0 0 0-24 24v139.04a91.68 91.68 0 0 1-90.4 92.64H238.4a92.64 92.64 0 0 1-92.48-92.64V171.2a92.48 92.48 0 0 1 92.48-92.48h551.2A91.52 91.52 0 0 1 880 171.2v245.76a24 24 0 1 0 48 0V171.2a139.68 139.68 0 0 0-138.4-140.48H238.4a140.64 140.64 0 0 0-140.48 140.48v678.88a140.64 140.64 0 0 0 140.48 140.64h551.2A139.68 139.68 0 0 0 928 850.08v-139.04a24 24 0 0 0-24-24z" fill="#0C0C0C" p-id="12491"></path><path d="M706.08 288h-384a24 24 0 0 0 0 48h384a24 24 0 0 0 0-48zM705.12 480h-384a24 24 0 0 0 0 48h384a24 24 0 0 0 0-48zM1009.92 402.88a24.32 24.32 0 0 0-33.76 3.68l-361.44 448a23.84 23.84 0 0 0 3.52 33.6 23.84 23.84 0 0 0 33.76-3.52l361.6-448a24 24 0 0 0-3.68-33.76z" fill="#0C0C0C" p-id="12492"></path></svg>