<?xml version="1.0" standalone="no"?><!DOCTYPE svg PUBLIC "-//W3C//DTD SVG 1.1//EN" "http://www.w3.org/Graphics/SVG/1.1/DTD/svg11.dtd"><svg t="1553411084665" class="icon" style="" viewBox="0 0 1024 1024" version="1.1" xmlns="http://www.w3.org/2000/svg" p-id="10475" xmlns:xlink="http://www.w3.org/1999/xlink" width="200" height="200"><defs><style type="text/css"></style></defs><path d="M31.99974 32.00806v831.99324l319.9974 127.99896V160.00702zM671.99454 707.346573l208.494306-79.183357-65.27947-538.875621L671.99454 32.00806z" fill="#84BD5A" p-id="10476"></path><path d="M671.99454 32.00806L466.716208 114.087393 351.99714 160.00702v831.99324l226.718158-90.719263-68.94344-132.334925L671.99454 707.346573z" fill="#6FA14E" p-id="10477"></path><path d="M509.771858 768.946072l68.94344 132.334925L671.99454 864.0013v-156.654727z" fill="#00A0C5" p-id="10478"></path><path d="M880.488846 628.163216L671.99454 707.346573V864.0013l319.9974 127.99896V585.923559z" fill="#50BEE8" p-id="10479"></path><path d="M991.99194 160.00702v425.916539l-111.503094 42.239657-65.27947-538.875621z" fill="#50BEE8" p-id="10480"></path><path d="M1005.927827 580.659602a32.03174 32.03174 0 0 0-41.279665-18.575849l-57.279534 21.727824L847.769112 92.167571a32.159739 32.159739 0 0 0-35.631711-27.919773 31.99974 31.99974 0 0 0-27.903773 35.615711l61.5035 507.339877L671.99454 673.074851v68.447444l315.341438-119.615028a31.99974 31.99974 0 0 0 18.591849-41.247665zM351.99714 502.452238L24.911798 576.803633a31.99974 31.99974 0 0 0 14.175884 62.399493L351.99714 568.099704v-65.647466z" fill="#FCD063" p-id="10481"></path><path d="M671.99454 673.074851l-147.086805 55.791547L417.596607 523.204069l77.775368-388.92484a31.99974 31.99974 0 1 0-62.73549-12.559898l-75.935383 379.660915-4.703962 1.071992v65.647466l15.023878-3.423972 180.590533 346.125188a32.04774 32.04774 0 0 0 43.199649 13.56789 31.99974 31.99974 0 0 0 13.567889-43.16765l-49.663596-95.183226 117.279047-44.479639v-68.463444z" fill="#F7B84E" p-id="10482"></path><path d="M991.99194 1024c-3.999968 0-8.031935-0.751994-11.871903-2.287981L671.99454 898.46502l-308.093497 123.246999a32.287738 32.287738 0 0 1-23.775807 0l-319.9974-127.99896A31.99974 31.99974 0 0 1 0 864.0013V32.00806A31.99974 31.99974 0 0 1 43.887643 2.296301L351.99714 125.5273 660.122637 2.280301a32.127739 32.127739 0 0 1 23.775806 0l319.9974 127.99896A32.03174 32.03174 0 0 1 1023.99168 160.00702v831.99324a31.935741 31.935741 0 0 1-31.99974 31.99974zM63.99948 842.321476l287.99766 115.199064 308.125497-123.246998a32.127739 32.127739 0 0 1 23.775806 0L959.9922 944.736644V181.670844l-287.99766-115.199064-308.093497 123.246999a32.287738 32.287738 0 0 1-23.775807 0L63.99948 79.271676v763.0498z" fill="#E2E5E7" p-id="10483"></path><path d="M363.901043 189.718779L671.99454 66.47178V0.00832c-4.031967 0-8.047935 0.751994-11.871903 2.271981L351.99714 125.5273v66.46346c4.031967 0 8.063934-0.751994 11.903903-2.271981zM660.122637 834.273542L351.99714 957.52054v66.46346c4.031967 0 8.063934-0.751994 11.903903-2.271981L671.99454 898.46502V832.00156c-4.031967 0-8.047935 0.767994-11.871903 2.271982z" fill="#CAD1D8" p-id="10484"></path></svg>